<svg xmlns="http://www.w3.org/2000/svg" width="640" height="360" viewBox="0 0 640 360" role="img" aria-label="Live Dashboard reference app cover">
  <defs>
    <linearGradient id="bg" x1="0" y1="0" x2="1" y2="1">
      <stop offset="0" stop-color="#0B1220"/><stop offset="1" stop-color="#111C32"/>
    </linearGradient>
    <linearGradient id="ac" x1="0" y1="0" x2="1" y2="1">
      <stop offset="0" stop-color="#3B82F6"/><stop offset="1" stop-color="#2563EB"/>
    </linearGradient>
  </defs>
  <rect width="640" height="360" rx="20" fill="url(#bg)"/>
  <g fill="none" stroke="#1E293B" stroke-width="1"><path d="M0 60h640M0 120h640M0 180h640M0 240h640M0 300h640"/></g>
  <g>
    <rect x="40" y="200" width="34" height="60" rx="5" fill="#1E3A6E"/>
    <rect x="90" y="160" width="34" height="100" rx="5" fill="#1E3A6E"/>
    <rect x="140" y="120" width="34" height="140" rx="5" fill="url(#ac)"/>
    <rect x="190" y="180" width="34" height="80" rx="5" fill="#1E3A6E"/>
    <rect x="240" y="140" width="34" height="120" rx="5" fill="#1E3A6E"/>
  </g>
  <polyline points="320,230 370,190 420,205 470,150 520,170 580,110" fill="none" stroke="#34D399" stroke-width="4" stroke-linecap="round" stroke-linejoin="round"/>
  <circle cx="580" cy="110" r="6" fill="#34D399"/>
  <g font-family="monospace" font-size="13" fill="#93A4C2">
    <text x="320" y="100">P99 latency · req/s · live SSE stream</text>
  </g>
  <text x="40" y="320" font-family="Inter,Arial,sans-serif" font-size="20" font-weight="700" fill="#E2E8F0">Live Dashboard</text>
</svg>
